<svg width="115" height="98" viewBox="0 0 115 98" fill="none" xmlns="http://www.w3.org/2000/svg">
<style>
path{
    fill: #000;
}
@media (prefers-color-scheme: dark){
    path{
    fill: #fff;
}
}
</style>

<path d="M6.25 30.75C3.08333 29.5 1 27.875 0 25.875C2.375 21.375 3.95833 18.3542 4.75 16.8125C5.58333 15.2708 6.52083 12.9167 7.5625 9.75C8.64583 6.54167 9.39583 3.3125 9.8125 0.0625H105.188C106.229 8.22917 109.479 16.8333 114.938 25.875C113.979 27.875 111.75 29.5 108.25 30.75C104.833 24.5417 99.7917 19.375 93.125 15.25C86.5 11.0833 77.8958 9 67.3125 9C66.9792 19.3333 66.8125 31.5833 66.8125 45.75C66.8125 63.8333 67.0208 77.0208 67.4375 85.3125C67.5208 86.8542 72.1667 88.0833 81.375 89C82.0833 91.6667 82 94.3542 81.125 97.0625C67.625 96.7292 59.7708 96.5625 57.5625 96.5625C54.2292 96.5625 44.8958 96.7292 29.5625 97.0625C28.5208 94.1875 28.5208 91.5 29.5625 89C38.6042 88.0833 43.1667 86.8958 43.25 85.4375C43.6667 74.9375 43.875 61.7083 43.875 45.75C43.875 32.4167 43.7083 20.2917 43.375 9.375C26.0417 11.625 13.6667 18.75 6.25 30.75ZM23.9375 6.8125L45.8125 6.1875C46.2292 20.0208 46.4375 33.2083 46.4375 45.75C46.4375 61.875 46.2292 75.1042 45.8125 85.4375C45.7292 88.5208 40.8958 90.5208 31.3125 91.4375C30.9792 92.1042 30.9792 93.0833 31.3125 94.375C38.3958 94.125 45.6667 94 53.125 94C62 94 70.5208 94.125 78.6875 94.375C79.0208 93.625 79.0208 92.6458 78.6875 91.4375C64.8542 90.6042 57.8958 88.6042 57.8125 85.4375C57.3958 71.6042 57.1875 58.375 57.1875 45.75C57.1875 29.7083 57.3958 16.5208 57.8125 6.1875L67.4375 6.4375C88.1875 6.9375 102.188 13.9792 109.438 27.5625C110.521 27.1458 111.229 26.5833 111.562 25.875C107.396 17.375 102.729 11.375 97.5625 7.875C92.3958 4.375 84.7083 2.625 74.5 2.625H53.125C48.5833 2.625 41.7292 2.60417 32.5625 2.5625C23.3958 2.52083 16.5833 2.5 12.125 2.5C11.9583 3.91667 11.6667 5.39583 11.25 6.9375C10.8333 8.47917 10.4375 9.79167 10.0625 10.875C9.72917 11.9167 9.14583 13.3125 8.3125 15.0625C7.52083 16.8125 6.97917 18 6.6875 18.625C6.39583 19.2083 5.72917 20.5 4.6875 22.5C3.6875 24.5 3.10417 25.625 2.9375 25.875C3.27083 26.5833 4 27.1458 5.125 27.5625C8.08333 22.6875 10.375 19.0833 12 16.75C13.625 14.4167 15.5417 12.1875 17.75 10.0625C20 7.89583 22.0625 6.8125 23.9375 6.8125Z"/>
</svg>
